<?xml version="1.0" standalone="no"?>
<!DOCTYPE svg PUBLIC "-//W3C//DTD SVG 20010904//EN"
 "http://www.w3.org/TR/2001/REC-SVG-20010904/DTD/svg10.dtd">
<svg version="1.0" xmlns="http://www.w3.org/2000/svg"
 width="713.000000pt" height="689.000000pt" viewBox="0 0 713.000000 689.000000"
 preserveAspectRatio="xMidYMid meet">

<g transform="translate(0.000000,689.000000) scale(0.100000,-0.100000)"
fill="#000000" stroke="none">
<path d="M1802 5470 c-102 -22 -193 -97 -240 -199 -21 -44 -26 -72 -26 -131
-1 -111 23 -171 98 -246 76 -76 133 -98 256 -99 73 -1 92 -5 130 -27 167 -96
1002 -506 1099 -539 205 -71 452 -82 661 -30 41 10 172 47 290 82 210 62 218
64 325 63 89 -1 127 -6 200 -28 139 -42 226 -87 620 -323 l365 -218 0 -332 0
-333 -95 0 -95 0 0 178 c0 138 -3 183 -14 198 -14 18 -34 19 -643 22 -345 2
-643 0 -661 -3 -30 -6 -37 -15 -90 -121 l-57 -114 -1470 0 -1471 0 -44 -22
c-26 -14 -53 -37 -65 -58 -19 -34 -20 -51 -20 -490 0 -437 1 -456 20 -489 11
-19 33 -43 48 -55 l28 -21 1488 -3 1487 -2 54 -111 c30 -61 63 -115 72 -120 9
-5 293 -9 657 -9 628 0 641 0 661 20 19 19 20 33 20 220 l0 200 401 0 c257 0
407 4 420 10 26 15 26 75 0 90 -13 6 -163 10 -420 10 l-401 0 0 280 0 280 393
0 c426 0 439 2 445 53 7 56 3 57 -279 57 l-259 0 0 355 c0 326 -1 356 -18 373
-9 9 -93 62 -185 117 l-167 100 62 21 c102 34 149 63 219 133 68 68 102 124
135 221 22 66 25 225 5 283 -7 21 -11 40 -9 43 3 2 92 -45 199 -104 l194 -108
3 -232 2 -232 25 -16 c32 -21 61 -10 74 28 7 20 10 116 8 264 -2 219 -3 235
-22 253 -27 25 -428 248 -633 350 -276 138 -357 161 -569 161 -248 0 -434 -45
-928 -223 -401 -144 -583 -188 -693 -167 -51 9 -264 93 -687 270 -352 147
-479 202 -492 212 -6 5 -14 21 -18 36 -10 43 -72 126 -118 159 -82 58 -185 82
-275 63z m151 -116 c65 -22 130 -94 146 -161 7 -29 18 -56 24 -61 32 -24 1157
-487 1219 -502 155 -35 341 7 873 200 375 136 585 184 800 183 170 -1 244 -18
407 -96 124 -58 154 -86 197 -177 23 -48 26 -68 26 -160 0 -97 -2 -110 -31
-170 -57 -120 -155 -203 -278 -236 -110 -29 -202 -10 -332 69 -258 157 -436
214 -649 205 -97 -4 -134 -11 -308 -62 -109 -31 -217 -64 -240 -72 -107 -38
-309 -53 -454 -33 -168 23 -381 117 -1081 478 l-292 150 -78 -6 c-88 -6 -126
5 -184 56 -132 116 -88 337 79 397 51 18 100 17 156 -2z m2417 -2654 l0 -700
-130 0 -130 0 -51 103 c-28 56 -58 110 -67 120 -14 16 -99 17 -1513 17 -1471
0 -1498 0 -1509 19 -14 27 -14 855 0 882 11 19 38 19 1509 19 1414 0 1499 1
1513 18 9 9 39 63 67 120 l51 102 130 0 130 0 0 -700z m910 0 l0 -700 -402 2
-403 3 -3 685 c-1 377 0 691 3 698 3 9 94 12 405 12 l400 0 0 -700z"/>
<path d="M5219 4645 c-37 -20 -59 -58 -59 -102 0 -119 164 -155 215 -47 19 40
19 58 -1 99 -26 56 -100 80 -155 50z"/>
<path d="M4776 3088 c-14 -19 -16 -74 -16 -395 0 -403 0 -403 55 -403 55 0 55
3 55 369 l0 338 45 5 c55 7 75 22 75 57 0 44 -16 51 -111 51 -79 0 -89 -2
-103 -22z"/>
</g>
</svg>
