<?xml version="1.0" standalone="no"?>
<!DOCTYPE svg PUBLIC "-//W3C//DTD SVG 20010904//EN"
 "http://www.w3.org/TR/2001/REC-SVG-20010904/DTD/svg10.dtd">
<svg version="1.0" xmlns="http://www.w3.org/2000/svg"
 width="713.000000pt" height="689.000000pt" viewBox="0 0 713.000000 689.000000"
 preserveAspectRatio="xMidYMid meet">

<g transform="translate(0.000000,689.000000) scale(0.100000,-0.100000)"
fill="#000000" stroke="none">
<path d="M5180 5467 c-108 -31 -190 -97 -230 -184 -12 -27 -25 -54 -29 -62 -8
-15 -55 -36 -472 -211 -441 -184 -659 -270 -711 -280 -110 -21 -292 23 -693
167 -494 178 -680 223 -928 223 -212 0 -293 -23 -569 -161 -205 -102 -606
-325 -633 -350 -19 -18 -20 -34 -22 -253 -2 -148 1 -244 8 -264 13 -38 42 -49
74 -28 l25 16 2 232 3 232 194 108 c107 59 196 106 199 104 2 -3 -2 -22 -9
-43 -20 -58 -17 -217 5 -283 33 -97 67 -153 135 -221 70 -70 117 -99 219 -133
l62 -21 -167 -100 c-92 -55 -176 -108 -185 -117 -17 -17 -18 -47 -18 -373 l0
-355 -259 0 c-282 0 -286 -1 -279 -57 6 -51 19 -53 446 -53 l392 0 0 -280 0
-280 -401 0 c-257 0 -407 -4 -420 -10 -26 -15 -26 -75 0 -90 13 -6 163 -10
420 -10 l401 0 0 -200 c0 -187 1 -201 20 -220 20 -20 33 -20 661 -20 364 0
648 4 657 9 9 5 42 59 72 120 l54 111 1487 2 1488 3 28 21 c15 12 37 36 48 55
19 33 20 52 20 489 0 439 -1 456 -20 490 -12 21 -39 44 -65 58 l-44 22 -1471
0 -1470 0 -57 114 c-53 106 -60 115 -90 121 -18 3 -316 5 -661 3 -609 -3 -629
-4 -643 -22 -11 -15 -14 -60 -14 -198 l0 -178 -95 0 -95 0 0 333 0 332 365
218 c394 236 481 281 620 323 73 22 111 27 200 28 107 1 115 -1 325 -63 118
-35 249 -72 290 -82 209 -52 456 -41 661 30 97 33 932 443 1099 539 38 22 57
26 130 27 123 1 180 23 256 99 75 75 99 135 98 246 0 88 -29 162 -89 229 -75
83 -223 127 -325 98z m198 -134 c133 -82 150 -273 34 -374 -58 -51 -96 -62
-184 -56 l-78 6 -292 -150 c-700 -361 -913 -455 -1081 -478 -145 -20 -347 -5
-454 33 -23 8 -131 41 -240 72 -174 51 -211 58 -308 62 -213 9 -391 -48 -649
-205 -130 -79 -222 -98 -332 -69 -123 33 -221 116 -278 236 -29 60 -31 73 -31
170 0 92 3 112 26 160 43 91 73 119 197 177 163 78 237 95 407 96 215 1 425
-47 800 -183 532 -193 718 -235 873 -200 70 17 1195 482 1218 504 7 6 19 36
28 66 18 65 78 131 141 155 60 23 146 13 203 -22z m-2723 -2633 l0 -695 -402
-3 -403 -2 0 700 0 700 403 -2 402 -3 0 -695z m416 598 c28 -57 58 -111 67
-120 14 -17 99 -18 1513 -18 1471 0 1498 0 1509 -19 14 -27 14 -855 0 -882
-11 -19 -38 -19 -1509 -19 -1414 0 -1499 -1 -1513 -17 -9 -10 -39 -64 -67
-120 l-51 -103 -130 0 -130 0 0 700 0 700 130 0 130 0 51 -102z"/>
<path d="M1803 4644 c-31 -16 -63 -66 -63 -99 0 -9 7 -31 15 -49 51 -108 215
-72 215 47 0 45 -22 83 -61 103 -36 18 -66 18 -106 -2z"/>
<path d="M2152 3098 c-17 -17 -15 -63 3 -78 8 -7 35 -15 60 -18 l45 -5 0 -338
c0 -366 0 -369 55 -369 55 0 55 0 55 403 0 321 -2 376 -16 395 -14 20 -24 22
-103 22 -54 0 -91 -4 -99 -12z"/>
</g>
</svg>
